<svg width="28" height="28" viewBox="0 0 28 28" fill="none" xmlns="http://www.w3.org/2000/svg">
<path d="M13.9997 4.66675C18.7597 4.66675 22.6913 8.22508 23.263 12.8334H18.5263C18.0013 10.8151 16.1697 9.33342 13.9997 9.33342C11.8297 9.33342 9.99799 10.8151 9.48466 12.8334H4.73633C5.30799 8.22508 9.23966 4.66675 13.9997 4.66675Z" fill="#EF171C"/>
<path d="M13.9997 2.33325C7.55967 2.33325 2.33301 7.55992 2.33301 13.9999C2.33301 20.4399 7.55967 25.6666 13.9997 25.6666C20.4397 25.6666 25.6663 20.4399 25.6663 13.9999C25.6663 7.55992 20.4397 2.33325 13.9997 2.33325ZM13.9997 4.66659C18.7597 4.66659 22.6913 8.22492 23.263 12.8333H18.5263C18.0013 10.8149 16.1697 9.33325 13.9997 9.33325C11.8297 9.33325 9.99801 10.8149 9.48467 12.8333H4.73634C5.30801 8.22492 9.23967 4.66659 13.9997 4.66659ZM16.333 13.9999C16.333 15.2833 15.283 16.3333 13.9997 16.3333C12.7163 16.3333 11.6663 15.2833 11.6663 13.9999C11.6663 12.7166 12.7163 11.6666 13.9997 11.6666C15.283 11.6666 16.333 12.7166 16.333 13.9999ZM13.9997 23.3333C9.23967 23.3333 5.30801 19.7749 4.73634 15.1666H9.47301C9.98634 17.1849 11.818 18.6666 13.988 18.6666C16.158 18.6666 17.9897 17.1849 18.503 15.1666H23.2397C22.6913 19.7749 18.7597 23.3333 13.9997 23.3333Z" fill="#181D27"/>
</svg>
