<svg width="728" height="130" viewBox="0 0 728 130" fill="none" xmlns="http://www.w3.org/2000/svg">
<mask id="mask0_24456_1351" style="mask-type:luminance" maskUnits="userSpaceOnUse" x="109" y="63" width="197" height="71">
<path d="M109.895 63.2648H305.982V133.27H109.895V63.2648Z" fill="white"/>
</mask>
<g mask="url(#mask0_24456_1351)">
<path d="M260.175 80.4848C252.014 70.0544 239.333 63.9078 225.678 63.9078C212.061 63.9078 199.371 70.0544 191.181 80.447C168.883 80.8442 150.33 96.277 147.654 115.994C133.28 116.949 118.727 109.904 118.585 109.847C116.675 108.882 114.348 109.317 112.845 110.906C111.388 112.485 111.095 114.849 112.192 116.741C115.152 121.989 118.566 127.237 123.237 131.701H142.037C141.308 131.455 140.59 131.199 139.871 130.906C135.663 129.204 132.287 126.887 129.393 123.984C136.297 125.667 144.807 126.755 153.082 125.299C155.408 124.892 157.148 122.868 157.148 120.485C157.384 103.87 173.063 90.3289 192.051 90.3289C193.508 90.5937 196.666 89.6859 197.631 88.3147C203.844 79.2177 214.35 73.7897 225.678 73.7897C237.007 73.7897 247.456 79.1798 253.735 88.2485C254.605 89.5724 256.109 90.3478 257.735 90.3478C257.735 90.3478 257.792 90.3478 257.83 90.3478C277.887 90.3478 293.925 104.05 293.925 120.864C293.925 124.684 293.065 128.325 291.561 131.701H302.067C303.136 128.249 303.741 124.618 303.741 120.864C303.741 99.199 284.403 81.4399 260.175 80.4848Z" fill="white"/>
</g>
<mask id="mask1_24456_1351" style="mask-type:luminance" maskUnits="userSpaceOnUse" x="114" y="68" width="188" height="66">
<path d="M114.736 68.1063H301.141V133.27H114.736V68.1063Z" fill="white"/>
</mask>
<g mask="url(#mask1_24456_1351)">
<path d="M258.124 85.3831C258.001 85.3831 257.859 85.4304 257.736 85.4304C250.861 75.4444 239.097 68.8344 225.679 68.8344C212.232 68.8344 200.411 75.4917 193.593 85.4966C193.101 85.4871 192.581 85.3831 192.052 85.3831C170.274 85.3831 152.534 101.043 152.269 120.428C135.02 123.426 116.438 114.31 116.438 114.31C120.543 121.554 124.817 127.455 130.973 131.7H296.923C298.171 128.287 298.871 124.637 298.871 120.863C298.862 101.26 280.63 85.3831 258.124 85.3831Z" fill="white"/>
</g>
<path d="M263.003 85.7424C263.088 85.7424 263.145 85.7424 263.173 85.7424C264.015 85.7424 264.771 85.0804 264.828 84.201C264.951 83.2837 264.251 82.4516 263.315 82.3475C253.679 81.487 242.123 86.5651 240.09 96.3241C238.463 104.258 243.173 112.097 250.577 113.837C251.419 114.036 252.289 114.14 253.13 114.14C255.192 114.14 257.225 113.554 259.031 112.39C261.698 110.669 263.561 107.937 264.251 104.674C265.357 99.3123 262.133 93.9411 257.045 92.7401C255.04 92.2295 252.988 92.6172 251.267 93.7236C249.404 94.8867 248.043 96.8536 247.579 99.057C247.381 99.9743 247.986 100.892 248.856 101.081C249.792 101.194 250.662 100.683 250.861 99.7946C251.182 98.4423 251.939 97.2792 253.036 96.5889C254.066 95.9458 255.22 95.7662 256.298 96.0215C259.608 96.8253 261.698 100.39 260.941 103.974C260.468 106.338 259.135 108.315 257.225 109.544C255.457 110.66 253.395 110.991 251.362 110.537C245.669 109.213 242.123 103.161 243.371 97.0144C244.969 89.3358 254.832 84.8346 263.003 85.7424Z" fill="white"/>
<mask id="mask2_24456_1351" style="mask-type:luminance" maskUnits="userSpaceOnUse" x="192" y="104" width="42" height="30">
<path d="M192.203 104.419H233.357V133.27H192.203V104.419Z" fill="white"/>
</mask>
<g mask="url(#mask2_24456_1351)">
<path d="M231.456 120.75C228.354 110.112 219.957 105.242 207.616 107.256C202.68 108.05 198.113 111.048 195.418 115.313C193.072 119.076 192.401 123.417 193.593 127.511C194.028 129.005 194.699 130.414 195.522 131.7H200.07C198.708 130.254 197.63 128.476 197.044 126.481C196.174 123.417 196.666 120.135 198.491 117.28C200.619 113.866 204.24 111.483 208.193 110.859C215.427 109.686 224.742 110.651 227.967 121.79C228.874 124.911 228.695 128.306 227.74 131.7H231.484C232.402 127.994 232.477 124.249 231.456 120.75Z" fill="white"/>
</g>
<mask id="mask3_24456_1351" style="mask-type:luminance" maskUnits="userSpaceOnUse" x="211" y="118" width="11" height="16">
<path d="M211.57 118.944H221.254V133.27H211.57V118.944Z" fill="white"/>
</mask>
<g mask="url(#mask3_24456_1351)">
<path d="M219.239 125.506C219.003 124.986 217.783 122.159 215.23 120.599C214.36 120.05 213.244 120.305 212.761 121.194C212.203 122.045 212.497 123.161 213.367 123.691C214.899 124.665 215.806 126.736 215.835 126.764C216.289 128.4 216.175 130.159 215.504 131.7H219.352C219.873 129.743 219.844 127.606 219.239 125.506Z" fill="white"/>
</g>
<mask id="mask4_24456_1351" style="mask-type:luminance" maskUnits="userSpaceOnUse" x="0" y="0" width="50" height="86">
<path d="M0.957031 0.729431H49.3737V85.0521H0.957031V0.729431Z" fill="white"/>
</mask>
<g mask="url(#mask4_24456_1351)">
<path d="M48.8912 42.0065C48.8912 20.9283 27.9358 3.50958 0.947266 0.95636V10.9707C22.0728 13.4104 37.9785 26.394 37.9785 42.0065C37.9785 57.742 21.8932 70.8013 0.947266 73.1748V83.1229C27.9453 80.5603 48.8912 63.1038 48.8912 42.0065Z" fill="white"/>
</g>
<path d="M43.4254 42.0065C43.4254 23.6233 24.9665 8.38908 0.947266 5.92096V78.1489C24.9665 75.6807 43.4254 60.4654 43.4254 42.0065Z" fill="white"/>
<mask id="mask5_24456_1351" style="mask-type:luminance" maskUnits="userSpaceOnUse" x="0" y="26" width="190" height="108">
<path d="M0.957031 26.9523H189.782V133.271H0.957031V26.9523Z" fill="white"/>
</mask>
<g mask="url(#mask5_24456_1351)">
<path d="M162.727 100.296C157.725 86.1588 146.027 76.154 132.287 74.8112C129.677 51.9172 112.022 32.6924 89.4212 29.0422C69.856 25.8743 50.5744 35.0092 40.4655 51.9929C27.7467 50.7068 16.3612 57.2034 8.6164 70.0641C5.96861 70.2816 3.40593 70.6409 0.947266 71.1232V81.8373C4.3232 81.0335 7.96391 80.5039 11.841 80.3526C13.4675 80.258 14.9711 79.2746 15.7843 77.7521C18.6591 72.4187 26.8294 60.3051 40.9951 62.584C43.0849 63.1231 46.3474 62.2342 47.3214 60.2672C54.9905 45.0897 71.369 36.6641 88.1257 39.3781C107.663 42.546 122.538 60.0403 122.831 80.0784C122.831 81.5347 123.408 82.9342 124.457 83.9177C125.497 84.939 126.897 85.4023 128.202 85.2983C130.027 85.1281 131.597 85.1754 133.1 85.4212C143.209 87.0572 151.569 95.4355 154.368 106.812C154.945 109.081 156.921 110.793 159.068 110.764C159.295 110.764 160.599 110.689 160.864 110.689C169.81 111.956 178.633 121.828 177.706 129.299C177.593 130.15 177.413 130.954 177.195 131.71H187.295C187.342 131.427 187.399 131.162 187.437 130.878C189.12 117.734 176.893 102.613 162.727 100.296Z" fill="white"/>
</g>
<mask id="mask6_24456_1351" style="mask-type:luminance" maskUnits="userSpaceOnUse" x="0" y="126" width="14" height="8">
<path d="M0.957031 126.206H13.0612V133.27H0.957031V126.206Z" fill="white"/>
</mask>
<g mask="url(#mask6_24456_1351)">
<path d="M0.947266 131.701H10.7535C7.30196 130.708 4.01114 129.469 0.947266 128.041V131.701Z" fill="white"/>
</g>
<mask id="mask7_24456_1351" style="mask-type:luminance" maskUnits="userSpaceOnUse" x="0" y="31" width="185" height="103">
<path d="M0.957031 31.7937H184.941V133.27H0.957031V31.7937Z" fill="white"/>
</mask>
<g mask="url(#mask7_24456_1351)">
<path d="M161.971 105.468C160.987 105.308 160.079 105.563 159.124 105.535C155.701 91.7 145.535 82.1301 133.743 80.2388C131.71 79.9173 129.715 79.9078 127.701 80.0686C127.417 57.6759 111.209 37.8269 88.7971 34.2146C69.3359 31.0656 51.3876 41.1272 43.0187 57.7326C42.5648 57.6475 42.092 57.4584 41.6287 57.3922C28.0398 55.1888 17.5905 63.6996 11.5479 75.1134C7.84097 75.2742 4.28537 75.7281 0.947266 76.4563V131.691H182.245C182.359 131.161 182.453 130.622 182.519 130.065C183.862 119.521 173.347 107.303 161.971 105.468Z" fill="white"/>
</g>
<path d="M60.731 55.4721C57.3929 56.0111 54.4614 57.9023 52.693 60.6258C51.1611 63.0088 50.6316 65.8552 51.1611 68.607C51.3881 69.6472 52.3148 70.328 53.2793 70.1011C54.2628 69.9025 54.8775 68.919 54.6411 67.8788C54.2912 66.1389 54.6411 64.3232 55.6245 62.7913C56.8444 60.9095 58.9343 59.6045 61.3173 59.2262C66.9817 58.3752 72.5231 61.8835 73.5728 67.1223C74.0929 69.7607 73.5444 72.5881 71.9463 75.0752C69.828 78.3565 66.2535 80.6639 62.3669 81.288C53.8278 82.5835 44.2485 75.9451 42.5369 67.6235C41.752 63.614 43.5771 57.6754 47.4353 51.6895C52.4945 43.8974 59.6435 38.1101 65.27 37.2118C66.2535 37.051 66.8965 36.0959 66.7263 35.0841C66.5845 34.0628 65.6767 33.3252 64.7216 33.4765C58.0643 34.5356 50.1398 40.7957 44.5322 49.5051C40.0309 56.4082 38.0546 63.2641 39.0758 68.3422C40.7591 76.7962 48.6552 83.6237 57.1376 84.9949C59.0572 85.2975 61.0052 85.3259 62.9154 85.0327C67.7665 84.2573 72.2394 81.3353 74.8494 77.2312C77.0622 73.8647 77.8187 70.0254 77.0622 66.3753C75.6342 59.1979 68.3434 54.2995 60.731 55.4721Z" fill="white"/>
<mask id="mask8_24456_1351" style="mask-type:luminance" maskUnits="userSpaceOnUse" x="20" y="99" width="35" height="35">
<path d="M20.3232 99.5774H54.2149V133.271H20.3232V99.5774Z" fill="white"/>
</mask>
<g mask="url(#mask8_24456_1351)">
<path d="M51.4441 109.686C48.8342 104.031 43.4346 100.296 37.0421 99.8422C30.8954 99.4639 25.3729 102.358 22.3468 107.625C20.6163 110.604 20.1151 114.358 21.0135 117.781C21.9402 121.081 23.9733 123.738 26.8764 125.337C29.8363 126.925 33.2595 127.256 36.2288 126.197C38.782 125.223 40.7584 123.266 41.8648 120.694C42.2998 119.738 41.8648 118.623 40.9948 118.188C39.9452 117.743 39.0184 118.188 38.6118 119.105C37.9404 120.75 36.6354 122.027 34.9995 122.613C32.9474 123.37 30.5644 123.152 28.4462 121.951C26.4982 120.883 25.0797 119.067 24.4934 116.797C23.8031 114.386 24.1435 111.767 25.3634 109.667C27.6897 105.573 32.0491 103.332 36.8908 103.644C42.035 103.918 46.2148 106.887 48.2479 111.303C49.8176 114.689 50.1675 119.606 49.1841 124.41C48.5789 127.256 47.0469 129.677 44.976 131.71H49.7704C51.1226 129.809 52.125 127.672 52.6357 125.289C53.8272 119.625 53.3638 113.79 51.4441 109.686Z" fill="white"/>
</g>
<path d="M129.034 94.0455C125.696 93.0148 122.386 93.4025 119.682 95.0574C117.365 96.5136 115.739 98.8399 115.152 101.601C114.925 102.613 115.502 103.634 116.495 103.89C117.573 104.154 118.415 103.502 118.585 102.5C118.992 100.75 120.032 99.2465 121.516 98.3198C123.37 97.185 125.781 96.9486 128.108 97.6484C133.63 99.4262 137.346 105.091 136.183 110.282C135.663 112.911 133.97 115.152 131.531 116.703C128.287 118.708 124.041 119.228 120.334 117.999C112.022 115.37 105.866 105.062 107.634 96.8162C108.59 92.3906 112.514 87.6625 118.15 84.1541C124.448 80.2486 131.531 78.7734 136.59 80.4472C137.573 80.7404 138.5 80.1824 138.793 79.1895C139.086 78.1682 138.5 77.128 137.545 76.8254C131.483 74.9531 123.521 76.4188 116.353 80.8822C109.866 84.8823 105.346 90.5183 104.173 95.9273C101.97 106.178 109.176 118.415 119.332 121.62C120.145 121.857 120.959 122.065 121.772 122.207C125.781 122.84 129.961 122.065 133.356 119.984C136.647 117.932 138.907 114.821 139.692 111.199C141.214 104.05 136.439 96.4002 129.034 94.0455Z" fill="white"/>
<mask id="mask9_24456_1351" style="mask-type:luminance" maskUnits="userSpaceOnUse" x="424" y="63" width="195" height="71">
<path d="M424.604 63.2648H618.27V133.27H424.604V63.2648Z" fill="white"/>
</mask>
<g mask="url(#mask9_24456_1351)">
<path d="M616.719 116.75C617.826 114.859 617.532 112.495 616.086 110.916C614.573 109.327 612.246 108.882 610.336 109.856C610.223 109.913 595.641 116.958 581.296 116.003C578.629 96.2771 560.038 80.8442 537.739 80.4471C529.541 70.0545 516.888 63.9173 503.242 63.9173C489.587 63.9173 476.935 70.0545 468.736 80.4944C444.528 81.44 425.189 99.1991 425.189 120.864C425.189 124.618 425.776 128.249 426.863 131.701H437.36C435.866 128.325 435.005 124.684 435.005 120.864C435.005 104.05 451.034 90.3479 471.119 90.3479H471.185C472.812 90.3479 474.325 89.5725 475.195 88.2486C481.464 79.1894 491.914 73.7898 503.242 73.7898C514.562 73.7898 525.068 79.2177 531.281 88.3148C532.274 89.686 535.423 90.5938 536.869 90.329C555.867 90.329 571.537 103.871 571.773 120.485C571.773 122.868 573.513 124.892 575.83 125.299C584.142 126.755 592.615 125.668 599.537 123.984C596.634 126.887 593.258 129.204 589.078 130.906C588.369 131.2 587.65 131.455 586.922 131.701H605.684C610.355 127.237 613.769 121.989 616.719 116.75Z" fill="white"/>
</g>
<mask id="mask10_24456_1351" style="mask-type:luminance" maskUnits="userSpaceOnUse" x="429" y="68" width="185" height="66">
<path d="M429.445 68.1063H613.429V133.27H429.445V68.1063Z" fill="white"/>
</mask>
<g mask="url(#mask10_24456_1351)">
<path d="M612.492 114.31C612.492 114.31 593.901 123.426 576.653 120.428C576.416 101.043 558.648 85.3831 536.869 85.3831C536.349 85.3831 535.81 85.4871 535.356 85.4966C528.501 75.4917 516.727 68.8344 503.243 68.8344C489.824 68.8344 478.089 75.4444 471.185 85.4304C471.062 85.4304 470.94 85.3831 470.836 85.3831C448.301 85.3831 430.06 101.26 430.06 120.854C430.06 124.637 430.74 128.277 432.008 131.7H597.967C604.114 127.445 608.379 121.554 612.492 114.31Z" fill="white"/>
</g>
<path d="M465.606 82.3477C464.67 82.4423 463.98 83.2839 464.093 84.2012C464.159 85.0806 464.907 85.7331 465.777 85.7331C465.777 85.7331 465.843 85.7331 465.956 85.7331C474.079 84.8347 483.952 89.336 485.588 97.0051C486.798 103.152 483.261 109.204 477.569 110.528C475.536 110.982 473.502 110.651 471.706 109.535C469.786 108.315 468.453 106.329 467.98 103.965C467.233 100.381 469.323 96.816 472.632 96.0122C473.729 95.7569 474.892 95.9365 475.885 96.5796C476.992 97.2699 477.739 98.4425 478.089 99.7853C478.268 100.674 479.138 101.185 480.065 101.071C480.935 100.882 481.569 99.965 481.342 99.0477C480.878 96.8444 479.536 94.8774 477.682 93.7143C475.933 92.6079 473.909 92.2202 471.866 92.7308C466.817 93.9318 463.564 99.303 464.67 104.665C465.37 107.927 467.233 110.66 469.909 112.381C471.706 113.535 473.729 114.131 475.829 114.131C476.642 114.131 477.512 114.027 478.391 113.837C485.748 112.098 490.458 104.249 488.831 96.3148C486.798 86.5558 475.242 81.4777 465.606 82.3477Z" fill="white"/>
<mask id="mask11_24456_1351" style="mask-type:luminance" maskUnits="userSpaceOnUse" x="494" y="104" width="42" height="30">
<path d="M494.808 104.419H535.962V133.27H494.808V104.419Z" fill="white"/>
</mask>
<g mask="url(#mask11_24456_1351)">
<path d="M533.503 115.313C530.827 111.048 526.24 108.05 521.304 107.256C508.983 105.241 500.576 110.121 497.484 120.75C496.462 124.249 496.538 127.994 497.446 131.7H501.181C500.226 128.306 500.056 124.911 500.973 121.79C504.169 110.651 513.512 109.686 520.718 110.859C524.671 111.483 528.33 113.866 530.411 117.279C532.274 120.145 532.746 123.417 531.876 126.481C531.281 128.476 530.212 130.254 528.841 131.7H533.408C534.241 130.414 534.903 129.005 535.356 127.511C536.51 123.417 535.877 119.076 533.503 115.313Z" fill="white"/>
</g>
<mask id="mask12_24456_1351" style="mask-type:luminance" maskUnits="userSpaceOnUse" x="506" y="118" width="11" height="16">
<path d="M506.912 118.944H516.595V133.27H506.912V118.944Z" fill="white"/>
</mask>
<g mask="url(#mask12_24456_1351)">
<path d="M513.116 126.755C513.116 126.736 514.042 124.665 515.555 123.691C516.416 123.161 516.718 122.036 516.189 121.185C515.678 120.296 514.562 120.05 513.692 120.589C511.139 122.159 509.919 124.986 509.683 125.506C509.068 127.596 509.049 129.743 509.569 131.7H513.409C512.737 130.149 512.624 128.4 513.116 126.755Z" fill="white"/>
</g>
<mask id="mask13_24456_1351" style="mask-type:luminance" maskUnits="userSpaceOnUse" x="276" y="58" width="173" height="76">
<path d="M276.932 58.4225H448.811V133.27H276.932V58.4225Z" fill="white"/>
</mask>
<g mask="url(#mask13_24456_1351)">
<path d="M400.706 76.853C391.873 66.1484 378.162 59.8504 363.4 59.8504C348.714 59.8504 334.946 66.1484 326.123 76.8624C299.872 77.7419 278.851 95.936 278.851 118.215C278.851 122.934 279.806 127.473 281.536 131.7H292.439C290.028 127.605 288.666 123.038 288.666 118.215C288.666 100.863 306.312 86.7633 328.449 86.7633C330.133 86.5363 331.513 86.0257 332.459 84.7302C339.343 75.34 350.918 69.7229 363.4 69.7229C375.977 69.7229 387.58 75.3683 394.436 84.8342C395.41 86.177 398.635 86.7822 400.072 86.716C421.292 86.716 438.569 100.853 438.569 118.215C438.569 123.038 437.236 127.605 434.872 131.7H445.737C447.449 127.473 448.385 122.943 448.385 118.215C448.385 95.5766 427.07 77.1272 400.706 76.853Z" fill="white"/>
</g>
<mask id="mask14_24456_1351" style="mask-type:luminance" maskUnits="userSpaceOnUse" x="281" y="63" width="163" height="71">
<path d="M281.774 63.2648H443.97V133.27H281.774V63.2648Z" fill="white"/>
</mask>
<g mask="url(#mask14_24456_1351)">
<path d="M400.074 81.7803C399.487 81.7803 398.958 81.8938 398.39 81.9032C390.948 71.6147 378.078 64.7872 363.411 64.7872C348.83 64.7872 336.007 71.5485 328.517 81.7992C328.366 81.7992 328.224 81.7803 328.111 81.7803C303.59 81.7803 283.741 98.1209 283.741 118.225C283.741 122.991 284.857 127.54 286.871 131.701H440.405C442.382 127.54 443.479 122.991 443.479 118.225C443.479 98.1209 424.008 81.7803 400.074 81.7803Z" fill="white"/>
</g>
<path d="M322.124 78.8484C321.14 78.924 320.441 79.8035 320.516 80.7964C320.611 81.7799 321.453 82.4134 322.445 82.4134C323.315 82.3472 324.185 82.3 325.084 82.3C337.216 82.3 351.306 89.3261 353.784 100.589C354.796 105.09 354.011 109.705 351.562 113.591C349.103 117.468 345.292 120.163 340.819 121.147C337.33 121.951 333.765 121.336 330.786 119.407C327.76 117.497 325.661 114.499 324.914 111.01C323.684 105.392 327.174 99.851 332.753 98.6028C334.786 98.1394 336.866 98.4893 338.663 99.643C340.441 100.768 341.689 102.556 342.153 104.617C342.37 105.591 343.382 106.187 344.252 105.979C345.207 105.761 345.812 104.816 345.614 103.842C344.952 100.834 343.155 98.2718 340.564 96.6264C337.982 94.981 334.947 94.4609 331.968 95.1134C328.337 95.8982 325.263 98.0921 323.287 101.241C321.254 104.4 320.611 108.125 321.424 111.776C322.417 116.201 325.055 120.012 328.857 122.452C331.58 124.192 334.691 125.071 337.84 125.071C339.079 125.071 340.327 124.939 341.576 124.665C346.975 123.445 351.562 120.201 354.522 115.53C357.491 110.82 358.474 105.26 357.264 99.8416C354.209 85.9028 336.318 77.6852 322.124 78.8484Z" fill="white"/>
<path d="M405.927 82.4134C406.92 82.3566 407.79 81.7609 407.875 80.7963C407.951 79.8034 407.241 78.924 406.267 78.8483C392.13 77.6379 374.153 85.9028 371.137 99.8131C369.926 105.241 370.9 110.783 373.879 115.492C376.839 120.201 381.425 123.445 386.768 124.655C388.045 124.939 389.331 125.071 390.541 125.071C393.69 125.071 396.811 124.192 399.534 122.442C403.374 120.003 405.993 116.201 406.986 111.775C407.799 108.116 407.156 104.39 405.151 101.232C403.137 98.0921 400.073 95.8982 396.452 95.1133C393.482 94.4419 390.428 94.962 387.808 96.6169C385.255 98.2717 383.449 100.825 382.759 103.842C382.551 104.787 383.156 105.752 384.13 105.979C385.057 106.149 386.012 105.6 386.239 104.626C386.702 102.546 387.922 100.768 389.728 99.6429C391.525 98.4987 393.671 98.1393 395.657 98.6027C398.362 99.1985 400.679 100.825 402.154 103.17C403.62 105.515 404.14 108.286 403.534 110.991C402.74 114.499 400.65 117.497 397.624 119.407C394.617 121.326 391.033 121.951 387.591 121.147C383.109 120.163 379.317 117.468 376.848 113.572C374.399 109.686 373.586 105.08 374.636 100.589C377.293 88.5127 393.416 81.203 405.927 82.4134Z" fill="white"/>
<mask id="mask15_24456_1351" style="mask-type:luminance" maskUnits="userSpaceOnUse" x="678" y="0" width="50" height="86">
<path d="M678.791 0.729431H727.208V85.0521H678.791V0.729431Z" fill="white"/>
</mask>
<g mask="url(#mask15_24456_1351)">
<path d="M690.971 42.0066C690.971 26.5927 706.489 13.7415 727.208 11.0653V1.02264C700.579 3.83119 680.059 21.1269 680.059 42.0066C680.059 62.9053 700.579 80.2294 727.208 83.0474V73.0709C706.631 70.4704 690.971 57.5435 690.971 42.0066Z" fill="white"/>
</g>
<mask id="mask16_24456_1351" style="mask-type:luminance" maskUnits="userSpaceOnUse" x="683" y="5" width="45" height="76">
<path d="M683.633 5.16473H727.208V80.2106H683.633V5.16473Z" fill="white"/>
</mask>
<g mask="url(#mask16_24456_1351)">
<path d="M685.486 42.0068C685.486 60.2671 703.557 75.3595 727.217 78.064V5.99689C703.557 8.71087 685.486 23.8222 685.486 42.0068Z" fill="white"/>
</g>
<mask id="mask17_24456_1351" style="mask-type:luminance" maskUnits="userSpaceOnUse" x="712" y="126" width="16" height="8">
<path d="M712.683 126.206H727.208V133.27H712.683V126.206Z" fill="white"/>
</mask>
<g mask="url(#mask17_24456_1351)">
<path d="M727.207 131.701V127.634C722.782 129.441 717.931 130.84 712.796 131.701H727.207Z" fill="white"/>
</g>
<mask id="mask18_24456_1351" style="mask-type:luminance" maskUnits="userSpaceOnUse" x="540" y="26" width="188" height="108">
<path d="M540.804 26.9523H727.208V133.271H540.804V26.9523Z" fill="white"/>
</mask>
<g mask="url(#mask18_24456_1351)">
<path d="M552.492 125.762C551.452 118.443 560.19 108.911 569.135 107.795C569.362 107.795 570.705 107.88 570.913 107.88C573.05 107.927 575.017 106.291 575.556 104.079C578.223 93.0146 586.469 84.9294 596.578 83.4542C598.053 83.2367 599.651 83.1989 601.457 83.3786C602.772 83.5299 604.181 83.0759 605.174 82.0925C606.223 81.1563 606.772 79.7851 606.8 78.3572C606.8 58.773 621.495 41.865 640.957 39.0281C657.666 36.5883 674.167 45.0234 682.007 59.9645C683 61.8936 686.281 62.8109 688.371 62.3097C702.508 60.2671 710.82 72.2011 713.724 77.4589C714.593 78.9624 716.078 79.9459 717.733 80.0404C721.062 80.2296 724.248 80.6646 727.218 81.3076V70.9623C725.147 70.5746 723.01 70.2436 720.816 70.0545C712.901 57.364 701.43 50.8864 688.778 51.9739C678.47 35.255 659.075 26.0634 639.5 28.9192C616.966 32.1911 599.575 50.7635 597.211 73.1184C583.509 74.2342 571.953 83.8608 567.131 97.6199C553.022 99.7003 540.927 114.32 542.79 127.181C543.026 128.769 543.395 130.282 543.858 131.701H554.903C553.665 130.121 552.842 128.136 552.492 125.762Z" fill="white"/>
</g>
<mask id="mask19_24456_1351" style="mask-type:luminance" maskUnits="userSpaceOnUse" x="545" y="31" width="183" height="103">
<path d="M545.645 31.7937H727.207V133.27H545.645V31.7937Z" fill="white"/>
</mask>
<g mask="url(#mask19_24456_1351)">
<path d="M727.207 76.1347C724.257 75.5484 721.165 75.1323 717.959 74.9621C711.746 63.7185 701.202 55.2834 687.642 57.2597C687.169 57.3165 686.706 57.4962 686.271 57.5718C677.703 41.2406 659.642 31.1601 640.237 33.9876C617.892 37.2311 601.92 56.4276 601.854 78.3097C599.877 78.1111 597.844 78.1016 595.839 78.3853C584.113 80.078 574.023 89.3074 570.78 102.802C569.825 102.802 568.926 102.537 567.933 102.688C556.614 104.324 546.222 116.154 547.668 126.471C547.943 128.391 548.463 130.131 549.163 131.71H727.207V76.1347Z" fill="white"/>
</g>
<path d="M664.286 33.5711C663.331 33.4103 662.432 34.1101 662.291 35.1219C662.139 36.0959 662.782 37.051 663.775 37.2213C669.402 38.148 676.598 43.9069 681.78 51.5855C685.724 57.4768 687.643 63.3209 686.887 67.2264C685.26 75.34 675.757 81.7041 667.227 80.314C663.331 79.6804 659.7 77.3542 657.553 74.1295C655.936 71.6614 655.34 68.9002 655.841 66.3375C656.796 61.2216 662.31 57.874 668.012 58.7724C670.385 59.1695 672.485 60.484 673.695 62.328C674.745 63.8504 675.095 65.6188 674.745 67.3115C674.565 68.3611 675.161 69.2973 676.144 69.5054C677.109 69.7418 678.054 69.0798 678.234 68.0775C678.754 65.3824 678.177 62.5927 676.627 60.257C674.83 57.5619 671.87 55.6896 668.522 55.1222C660.929 53.874 653.657 58.5643 652.324 65.5715C651.633 69.1082 652.447 72.8813 654.688 76.2005C657.326 80.2478 661.856 83.1604 666.697 83.9831C668.645 84.2952 670.565 84.2952 672.485 84.0115C680.958 82.7821 688.75 76.2005 690.376 67.964C691.303 63.0183 689.232 56.3042 684.674 49.4956C678.934 40.9187 670.915 34.6869 664.286 33.5711Z" fill="white"/>
<mask id="mask20_24456_1351" style="mask-type:luminance" maskUnits="userSpaceOnUse" x="676" y="97" width="35" height="37">
<path d="M676.37 97.1562H710.262V133.27H676.37V97.1562Z" fill="white"/>
</mask>
<g mask="url(#mask20_24456_1351)">
<path d="M680.928 122.641C679.85 117.932 680.143 113.119 681.656 109.847C683.68 105.544 687.812 102.698 692.957 102.49C697.798 102.263 702.158 104.513 704.541 108.532C705.78 110.603 706.167 113.166 705.468 115.521C704.938 117.715 703.548 119.502 701.628 120.504C699.491 121.648 697.127 121.838 695.065 121.062C693.382 120.466 692.106 119.199 691.406 117.592C690.999 116.684 690.035 116.23 689.013 116.655C688.153 117.071 687.746 118.187 688.153 119.105C689.288 121.648 691.321 123.568 693.912 124.561C696.843 125.639 700.266 125.355 703.189 123.823C706.063 122.301 708.077 119.757 708.976 116.532C709.846 113.185 709.297 109.525 707.548 106.594C704.475 101.421 698.895 98.5086 692.739 98.7923C686.347 99.1705 681.004 102.736 678.451 108.22C676.597 112.22 676.2 117.923 677.458 123.455C678.186 126.632 679.822 129.384 682.006 131.701H687.481C684.247 129.384 681.779 126.348 680.928 122.641Z" fill="white"/>
</g>
<path d="M613.24 79.2458C606.006 74.7824 598.015 73.2599 591.982 75.0093C591.046 75.293 590.507 76.3049 590.762 77.3072C591.046 78.2812 592.039 78.8297 592.975 78.5649C598.015 76.9952 605.107 78.5366 611.49 82.4231C617.155 85.9315 621.098 90.5935 622.148 94.9339C624.011 103.019 617.996 113.024 609.722 115.464C605.996 116.627 601.769 116.06 598.516 114.055C596.048 112.523 594.299 110.301 593.779 107.71C592.559 102.631 596.162 97.1467 601.675 95.473C604.01 94.8299 606.422 95.0758 608.294 96.22C609.807 97.1562 610.828 98.6314 611.263 100.343C611.434 101.326 612.304 101.979 613.382 101.733C614.337 101.487 614.914 100.494 614.687 99.5108C614.072 96.7969 612.427 94.5084 610.1 93.0521C607.367 91.3973 604.058 90.9717 600.682 91.9457C593.315 94.1491 588.672 101.572 590.289 108.561C591.102 112.116 593.372 115.199 596.71 117.232C600.105 119.322 604.275 120.145 608.313 119.549C609.136 119.435 609.949 119.237 610.734 119.019C620.843 116.012 627.926 104.144 625.59 94.1018C624.389 88.7967 619.774 83.2364 613.24 79.2458Z" fill="white"/>
</svg>
